<svg width="25" height="24" viewBox="0 0 25 24" fill="none" xmlns="http://www.w3.org/2000/svg">
<path d="M6.07997 7.67125L4.43527 9.31595C2.79285 10.9584 2.79285 13.6212 4.43527 15.2637L6.07997 16.9084M6.07997 7.67125L9.77736 3.97386C11.4198 2.33144 14.0827 2.33144 15.7251 3.97386L19.4225 7.67125M6.07997 7.67125L8.2077 7.67125C8.4881 7.67125 8.75689 7.78326 8.95432 7.98238L12.0046 11.0588C12.4159 11.4736 13.0865 11.4736 13.4978 11.0588L16.5481 7.98238C16.7455 7.78326 17.0143 7.67125 17.2947 7.67125L19.4225 7.67125M19.4225 7.67125L21.0672 9.31595C22.7096 10.9584 22.7096 13.6213 21.0672 15.2637L19.4225 16.9084M6.07997 16.9084L9.77736 20.6058C11.4198 22.2482 14.0827 22.2482 15.7251 20.6058L19.4225 16.9084M6.07997 16.9084L8.25208 16.9084C8.50597 16.9084 8.75129 16.8165 8.94273 16.6497L12.0606 13.9335C12.4564 13.5887 13.046 13.5887 13.4419 13.9335L16.5597 16.6497C16.7512 16.8165 16.9965 16.9084 17.2504 16.9084L19.4225 16.9084" stroke="#32323B" stroke-width="2.10283"/>
</svg>
