<svg width="342" height="230" viewBox="0 0 342 230" fill="none" xmlns="http://www.w3.org/2000/svg">
<path d="M183.582 60.6392H341.431V229.432H183.582V60.6392Z" fill="#F4F4F4"/>
<path d="M341.431 230H183.582C183.431 230 183.286 229.94 183.179 229.834C183.073 229.727 183.013 229.583 183.013 229.433V60.6395C183.013 60.4889 183.073 60.3445 183.179 60.238C183.286 60.1316 183.431 60.0718 183.582 60.0718H341.431C341.582 60.0718 341.726 60.1316 341.833 60.238C341.94 60.3445 342 60.4889 342 60.6395V229.433C342 229.583 341.94 229.727 341.833 229.834C341.726 229.94 341.582 230 341.431 230ZM184.151 228.865H340.861V61.2071H184.151V228.865Z" fill="#32323B"/>
<path d="M183.582 60.6392H341.431V79.3271H183.582V60.6392Z" fill="#F4F4F4"/>
<path d="M341.431 79.8951H183.582C183.431 79.8951 183.286 79.8352 183.179 79.7288C183.073 79.6223 183.013 79.4779 183.013 79.3274V60.6395C183.013 60.4889 183.073 60.3445 183.179 60.238C183.286 60.1316 183.431 60.0718 183.582 60.0718H341.431C341.582 60.0718 341.726 60.1316 341.833 60.238C341.94 60.3445 342 60.4889 342 60.6395V79.3274C342 79.4779 341.94 79.6223 341.833 79.7288C341.726 79.8352 341.582 79.8951 341.431 79.8951ZM184.151 78.7597H340.861V61.2071H184.151V78.7597Z" fill="#32323B"/>
<path d="M192.019 72.0607C193.346 72.0607 194.422 70.9882 194.422 69.6651C194.422 68.3421 193.346 67.2695 192.019 67.2695C190.692 67.2695 189.617 68.3421 189.617 69.6651C189.617 70.9882 190.692 72.0607 192.019 72.0607Z" fill="#B7005C"/>
<path d="M200.65 72.0607C201.977 72.0607 203.052 70.9882 203.052 69.6651C203.052 68.3421 201.977 67.2695 200.65 67.2695C199.323 67.2695 198.247 68.3421 198.247 69.6651C198.247 70.9882 199.323 72.0607 200.65 72.0607Z" fill="#C6C6C6"/>
<path d="M209.281 72.0607C210.608 72.0607 211.683 70.9882 211.683 69.6651C211.683 68.3421 210.608 67.2695 209.281 67.2695C207.954 67.2695 206.878 68.3421 206.878 69.6651C206.878 70.9882 207.954 72.0607 209.281 72.0607Z" fill="#C6C6C6"/>
<path d="M252.549 152.864C252.549 152.864 217.354 157.871 212.628 152.864C207.903 147.857 197.075 119.292 197.075 119.292L184.55 129.601C184.55 129.601 193.955 183.076 209.907 182.792C225.859 182.508 261.59 169.497 261.59 169.497L252.549 152.864Z" fill="#F4F4F4"/>
<path d="M209.771 183.359C193.602 183.359 184.368 131.894 183.98 129.691C183.966 129.593 183.976 129.493 184.01 129.4C184.044 129.307 184.1 129.224 184.174 129.157L196.699 118.848C196.77 118.791 196.853 118.752 196.942 118.732C197.031 118.712 197.123 118.713 197.211 118.735C197.298 118.762 197.377 118.808 197.444 118.868C197.51 118.929 197.563 119.004 197.599 119.087C197.701 119.371 208.438 147.607 213.027 152.477C216.739 156.394 242.745 153.681 252.458 152.296C252.573 152.283 252.689 152.304 252.793 152.357C252.896 152.409 252.981 152.491 253.039 152.591L262.091 169.179C262.13 169.249 262.154 169.327 262.16 169.407C262.167 169.488 262.155 169.569 262.127 169.644C262.099 169.72 262.055 169.788 261.997 169.845C261.94 169.902 261.871 169.946 261.795 169.973C261.43 170.11 225.768 183.075 209.907 183.359H209.771ZM185.165 129.827C185.984 134.266 195.185 182.224 209.759 182.224H209.884C224.413 181.963 255.953 170.87 260.781 169.133L252.242 153.477C250.42 153.726 242.597 154.76 234.399 155.305C221.76 156.145 214.291 155.452 212.207 153.25C207.835 148.617 198.601 124.866 196.824 120.233L185.165 129.827Z" fill="#32323B"/>
<path d="M0.569336 0.556152H158.418V169.349H0.569336V0.556152Z" fill="#F4F4F4"/>
<path d="M158.475 169.928H0.569317C0.418324 169.928 0.273516 169.869 0.166749 169.762C0.059981 169.656 0 169.511 0 169.361V0.567677C0 0.41712 0.059981 0.272728 0.166749 0.166268C0.273516 0.0598082 0.418324 0 0.569317 0H158.475C158.626 0 158.771 0.0598082 158.878 0.166268C158.984 0.272728 159.044 0.41712 159.044 0.567677V169.361C159.044 169.511 158.984 169.656 158.878 169.762C158.771 169.869 158.626 169.928 158.475 169.928ZM1.19556 168.793H157.849V1.13535H1.13863L1.19556 168.793Z" fill="#32323B"/>
<path d="M0.569336 0.556152H158.418V19.2441H0.569336V0.556152Z" fill="#F4F4F4"/>
<path d="M158.475 19.8233H0.569317C0.419237 19.8204 0.276118 19.7596 0.169976 19.6538C0.0638335 19.548 0.00291498 19.4053 0 19.2556V0.567677C0 0.41712 0.059981 0.272728 0.166749 0.166268C0.273516 0.0598082 0.418324 0 0.569317 0H158.475C158.626 0 158.771 0.0598082 158.878 0.166268C158.984 0.272728 159.044 0.41712 159.044 0.567677V19.2556C159.044 19.4062 158.984 19.5506 158.878 19.657C158.771 19.7635 158.626 19.8233 158.475 19.8233ZM1.19556 18.6879H157.849V1.13535H1.13863L1.19556 18.6879Z" fill="#32323B"/>
<path d="M9.00664 11.9782C10.3335 11.9782 11.4092 10.9057 11.4092 9.58261C11.4092 8.25956 10.3335 7.18701 9.00664 7.18701C7.67977 7.18701 6.60413 8.25956 6.60413 9.58261C6.60413 10.9057 7.67977 11.9782 9.00664 11.9782Z" fill="#B7005C"/>
<path d="M17.6375 11.9782C18.9643 11.9782 20.04 10.9057 20.04 9.58261C20.04 8.25956 18.9643 7.18701 17.6375 7.18701C16.3106 7.18701 15.235 8.25956 15.235 9.58261C15.235 10.9057 16.3106 11.9782 17.6375 11.9782Z" fill="#C6C6C6"/>
<path d="M26.2684 11.9782C27.5953 11.9782 28.6709 10.9057 28.6709 9.58261C28.6709 8.25956 27.5953 7.18701 26.2684 7.18701C24.9415 7.18701 23.8659 8.25956 23.8659 9.58261C23.8659 10.9057 24.9415 11.9782 26.2684 11.9782Z" fill="#C6C6C6"/>
<path d="M42.6077 150.071L38.8958 169.36H99.1636L95.8502 159.562L42.6077 150.071Z" fill="#32323B"/>
<path d="M99.1637 169.929H38.9186C38.8358 169.929 38.754 169.91 38.6792 169.875C38.6043 169.84 38.5383 169.788 38.4859 169.724C38.4307 169.661 38.3906 169.587 38.3689 169.506C38.3472 169.425 38.3444 169.341 38.3607 169.259L42.0726 149.958C42.1003 149.81 42.1853 149.68 42.309 149.595C42.4327 149.51 42.5851 149.477 42.733 149.504L95.9641 158.995C96.0646 159.013 96.1586 159.057 96.2366 159.123C96.3146 159.189 96.3737 159.274 96.4082 159.37L99.7216 169.168C99.7504 169.253 99.7586 169.344 99.7455 169.432C99.7323 169.521 99.6982 169.606 99.646 169.679C99.5937 169.752 99.5248 169.812 99.445 169.853C99.3651 169.895 99.2765 169.917 99.1864 169.917L99.1637 169.929ZM39.5904 168.793H98.3666L95.4176 160.062L43.0405 150.73L39.5904 168.793Z" fill="#32323B"/>
<path d="M119.409 95.4717L153.59 136.537L138.538 142.68L101.919 103.828L119.409 95.4717Z" fill="#F4F4F4"/>
<path d="M138.538 143.248C138.46 143.248 138.384 143.232 138.313 143.201C138.242 143.17 138.179 143.124 138.128 143.066L101.543 104.214C101.481 104.151 101.434 104.074 101.409 103.989C101.383 103.903 101.378 103.813 101.395 103.726C101.411 103.637 101.449 103.554 101.504 103.483C101.56 103.411 101.632 103.355 101.714 103.317L119.204 94.9612C119.318 94.9066 119.447 94.8914 119.571 94.9181C119.694 94.9449 119.806 95.012 119.887 95.1088L154.046 136.175C154.104 136.243 154.144 136.324 154.164 136.41C154.184 136.497 154.182 136.588 154.16 136.674C154.136 136.76 154.094 136.84 154.034 136.907C153.975 136.974 153.901 137.026 153.818 137.06L138.777 143.202C138.702 143.238 138.62 143.254 138.538 143.248ZM102.876 104.01L138.686 142.01L152.657 136.334L119.261 96.2101L102.876 104.01Z" fill="#32323B"/>
<path d="M109.138 74.0703L126.457 96.573L102.853 109.482L109.138 74.0703Z" fill="#32323B"/>
<path d="M109.138 74.1274C107.692 71.8566 74.8538 61.5476 64.0823 69.1091C53.3109 76.6705 41.8904 135.141 38.9185 153.239L104.549 170.065C104.549 170.065 117.097 86.9001 109.138 74.1274Z" fill="#32323B"/>
<path d="M107.772 155.396H107.703C107.629 155.383 107.558 155.356 107.495 155.316C107.431 155.277 107.376 155.225 107.332 155.163C107.289 155.102 107.258 155.033 107.242 154.96C107.225 154.887 107.224 154.811 107.237 154.737C107.294 154.226 113.112 103.646 111.233 90.9756C111.222 90.901 111.226 90.825 111.244 90.7519C111.262 90.6787 111.295 90.6099 111.34 90.5492C111.385 90.4886 111.441 90.4374 111.506 90.3986C111.571 90.3597 111.642 90.3339 111.717 90.3228C111.792 90.3116 111.868 90.3152 111.942 90.3334C112.015 90.3516 112.084 90.384 112.145 90.4288C112.206 90.4736 112.257 90.5299 112.296 90.5945C112.335 90.6591 112.361 90.7307 112.372 90.8053C114.273 103.646 108.626 152.784 108.387 154.862C108.375 155.014 108.304 155.155 108.189 155.254C108.074 155.354 107.924 155.405 107.772 155.396Z" fill="#32323B"/>
<path d="M90.9428 59.9695C87.3247 58.9361 84.06 56.9334 81.5035 54.1792C80.3134 52.9755 79.5191 51.439 79.2263 49.774C79.1109 48.9388 79.2706 48.0887 79.6813 47.3517C80.0919 46.6146 80.7314 46.0304 81.5035 45.6868C80.737 45.1671 80.1057 44.4728 79.6622 43.6612C79.2186 42.8497 78.9755 41.9444 78.953 41.0205C78.9309 39.1665 79.415 37.3416 80.3535 35.7411C81.4921 33.6293 83.3709 31.6197 85.762 31.5516C84.8967 29.6896 84.0313 27.5324 84.8853 25.6705C85.3728 24.7585 86.0764 23.979 86.9348 23.3998C88.5334 22.1604 90.2451 21.0732 92.0473 20.1526C93.0151 19.6644 94.2448 19.233 95.1102 19.8802C95.6453 18.0036 96.6951 16.3132 98.1415 14.9994C99.5879 13.6856 101.373 12.8004 103.297 12.4436C105.204 12.0533 107.188 12.309 108.933 13.1702C110.567 14.3698 112.091 15.711 113.488 17.178C116.277 16.3719 120.707 17.178 122.768 19.233C123.659 20.1691 124.282 21.327 124.57 22.5854C124.858 23.8438 124.802 25.1564 124.407 26.3857C126.413 27.5151 128.149 29.0645 129.497 30.9272C130.161 31.8628 130.607 32.9341 130.804 34.0633C131.001 35.1925 130.944 36.3512 130.636 37.4554C130.297 38.5471 129.604 39.496 128.667 40.1534C127.729 40.8108 126.6 41.1397 125.455 41.0886C126.371 42.0636 126.899 43.3379 126.941 44.6732C126.983 46.0085 126.535 47.3133 125.682 48.3435C124.779 49.331 123.601 50.0272 122.299 50.3427C120.996 50.6583 119.629 50.5789 118.372 50.1146C118.018 49.9455 117.627 49.8637 117.234 49.8762C116.805 50.021 116.416 50.2618 116.095 50.5801C114.957 51.4771 113.476 51.1705 112.212 51.7155C110.501 52.7156 108.874 53.8548 107.351 55.1216C105.769 56.1837 104.135 57.1651 102.454 58.0621C100.598 59.0612 98.8335 60.5826 96.7612 61.1843C94.9394 61.718 93.9374 60.9232 92.2067 60.3896L90.9428 59.9695Z" fill="#F4F4F4"/>
<path d="M95.5997 61.9109C94.76 61.8766 93.9355 61.6759 93.1744 61.3205C92.8214 61.1956 92.4571 61.048 92.0358 60.9231L90.7377 60.5031C87.0316 59.4287 83.6869 57.3728 81.0594 54.5538C79.7806 53.2704 78.9399 51.6178 78.6569 49.8307C78.5678 49.0364 78.6819 48.2325 78.9885 47.494C79.2951 46.7555 79.7843 46.1064 80.4104 45.6072C79.1611 44.4155 78.4226 42.7882 78.3494 41.0658C78.3365 39.1186 78.8519 37.2042 79.841 35.5253C80.4787 34.3218 82.198 31.6651 84.9079 31.1314C84.1223 29.3149 83.5188 27.3167 84.3614 25.4547C84.8887 24.4685 85.6463 23.6234 86.5704 22.991C88.2017 21.7194 89.9431 20.5948 91.7739 19.6303C92.6624 19.0981 93.7113 18.8969 94.7344 19.0626C95.3848 17.2299 96.5083 15.6006 97.9915 14.3388C99.4748 13.0771 101.265 12.2275 103.183 11.8758C105.21 11.4593 107.318 11.731 109.172 12.6479C110.782 13.8313 112.304 15.129 113.727 16.5308C116.585 15.8609 121.025 16.5876 123.212 18.8015C124.123 19.7582 124.776 20.9295 125.111 22.2061C125.445 23.4827 125.45 24.8229 125.124 26.1018C127.058 27.227 128.728 28.7523 130.021 30.5751C130.731 31.5954 131.201 32.7623 131.396 33.989C131.592 35.2156 131.507 36.4704 131.148 37.6597C130.814 38.6675 130.216 39.5677 129.415 40.2665C128.614 40.9654 127.639 41.4374 126.593 41.6335C127.25 42.7211 127.553 43.9848 127.462 45.2511C127.37 46.5174 126.888 47.7245 126.081 48.7067C125.106 49.7975 123.822 50.5672 122.399 50.9139C120.975 51.2607 119.48 51.168 118.111 50.6482H117.985C117.767 50.549 117.531 50.4949 117.291 50.4892C117.032 50.5652 116.797 50.7059 116.607 50.898L116.38 51.0796C115.641 51.574 114.785 51.8676 113.898 51.9311C113.377 51.9804 112.867 52.1067 112.383 52.3058C111.232 52.9025 110.151 53.626 109.161 54.463C108.626 54.8717 108.102 55.2691 107.601 55.5983C106.018 56.6701 104.376 57.6518 102.682 58.5389C102.079 58.8795 101.475 59.2655 100.849 59.6743C99.6438 60.5388 98.321 61.227 96.9205 61.7179C96.4912 61.8423 96.0468 61.9073 95.5997 61.9109ZM94.0398 20.1412C93.4261 20.1857 92.8306 20.3681 92.2977 20.6748C90.5261 21.5832 88.8416 22.6511 87.2649 23.8652C86.4899 24.3938 85.8471 25.093 85.3862 25.9088C84.6347 27.5324 85.4545 29.5533 86.2743 31.3018C86.3192 31.3856 86.3426 31.4792 86.3426 31.5742C86.3426 31.6693 86.3192 31.7629 86.2743 31.8467C86.2225 31.9246 86.1535 31.9897 86.0726 32.0369C85.9916 32.0841 85.901 32.1123 85.8075 32.1192C83.2 32.1873 81.492 34.8554 80.8772 36.0021C79.9931 37.5144 79.533 39.2359 79.545 40.9863C79.5624 41.8198 79.7779 42.6372 80.1737 43.3714C80.5696 44.1057 81.1346 44.7357 81.8223 45.2098C81.9156 45.2633 81.9915 45.3426 82.0407 45.4382C82.0898 45.5337 82.1102 45.6414 82.0994 45.7482C82.0886 45.855 82.047 45.9564 81.9796 46.0402C81.9122 46.124 81.822 46.1865 81.7198 46.2203C81.0715 46.5247 80.5388 47.0292 80.2004 47.659C79.8621 48.2887 79.7361 49.0104 79.841 49.7172C80.108 51.267 80.8522 52.6955 81.9703 53.8045C84.4558 56.498 87.6337 58.4613 91.1591 59.4812C91.569 59.6288 92.0016 59.7651 92.4343 59.9013C92.867 60.0376 93.2541 60.1852 93.5729 60.3214C94.4956 60.8213 95.5748 60.9513 96.5903 60.6847C97.8823 60.2243 99.1016 59.582 100.211 58.7773C100.837 58.38 101.475 57.9599 102.135 57.642C103.798 56.7571 105.413 55.787 106.975 54.7355C107.464 54.3949 107.965 54.0088 108.489 53.6001C109.54 52.7191 110.685 51.9575 111.905 51.3294C112.486 51.0872 113.1 50.9304 113.727 50.8639C114.424 50.8262 115.099 50.607 115.685 50.2281L115.902 50.0692C116.242 49.7359 116.674 49.5107 117.143 49.422C117.568 49.3883 117.995 49.4625 118.384 49.6377H118.498C119.652 50.065 120.909 50.1388 122.105 49.8495C123.302 49.5603 124.385 48.9212 125.216 48.0142C125.97 47.0916 126.367 45.9291 126.334 44.7389C126.3 43.5488 125.839 42.4103 125.033 41.5313C124.946 41.4508 124.887 41.3446 124.864 41.2282C124.842 41.1118 124.857 40.9912 124.908 40.8841C124.958 40.7753 125.041 40.6848 125.145 40.6257C125.249 40.5665 125.37 40.5418 125.489 40.5549C126.509 40.6109 127.518 40.3235 128.354 39.7387C129.191 39.1539 129.806 38.3057 130.1 37.3305C130.386 36.3079 130.437 35.2346 130.252 34.1894C130.067 33.1442 129.649 32.1536 129.03 31.2904C127.733 29.4974 126.058 28.0093 124.122 26.9306C124.012 26.8628 123.928 26.7595 123.885 26.6377C123.841 26.5159 123.841 26.3829 123.883 26.2608C124.251 25.1218 124.305 23.9051 124.038 22.7385C123.772 21.5718 123.195 20.4982 122.369 19.6303C120.433 17.6434 116.175 16.9849 113.67 17.7229C113.597 17.7495 113.52 17.7611 113.443 17.7571C113.366 17.7531 113.291 17.7335 113.222 17.6995C113.152 17.6655 113.091 17.6179 113.041 17.5595C112.99 17.501 112.953 17.433 112.93 17.3596C111.577 16.0346 110.139 14.7982 108.626 13.6584C107 12.8443 105.145 12.6042 103.365 12.9771C101.549 13.3146 99.862 14.1497 98.4945 15.3889C97.127 16.6282 96.1325 18.2226 95.6225 19.9936C95.5986 20.0843 95.5529 20.1679 95.4894 20.2371C95.426 20.3063 95.3466 20.3591 95.2581 20.391C95.1695 20.4241 95.0739 20.4342 94.9802 20.4203C94.8866 20.4064 94.7981 20.3689 94.723 20.3115C94.517 20.1889 94.2794 20.1297 94.0398 20.1412Z" fill="#32323B"/>
<path d="M117.131 51.3179C117.131 51.3179 119.693 60.4007 118.179 61.5361C116.664 62.6714 113.624 60.6505 113.624 60.6505" fill="#F4F4F4"/>
<path d="M116.96 62.5351C115.627 62.4055 114.348 61.9364 113.249 61.1727C113.127 61.0839 113.044 60.9513 113.019 60.8029C112.993 60.6545 113.027 60.5021 113.112 60.3779C113.197 60.2553 113.327 60.1711 113.474 60.1435C113.621 60.1158 113.773 60.147 113.898 60.2303C114.604 60.7185 116.847 61.922 117.814 61.1386C118.555 60.5482 117.814 55.6662 116.585 51.4654C116.546 51.3209 116.564 51.1669 116.636 51.0357C116.708 50.9044 116.829 50.8061 116.972 50.7615C117.118 50.7228 117.274 50.7428 117.406 50.817C117.538 50.8912 117.635 51.0139 117.678 51.1588C118.304 53.3614 120.217 60.6731 118.532 62.0242C118.086 62.3753 117.528 62.5564 116.96 62.5351Z" fill="#32323B"/>
<path d="M120.752 34.4806C121.144 34.8903 121.378 35.4253 121.413 35.9906C121.654 37.9843 121.523 40.0053 121.025 41.9512C120.174 45.7998 119.082 49.5917 117.758 53.3048C116.126 58.2549 114.387 63.1748 112.543 68.0644C111.404 71.1526 103.172 68.6321 102.033 67.2356L99.3345 80.0651C99.3345 80.0651 95.076 79.8948 89.4511 74.763C83.8263 69.6312 84.2703 68.053 84.2703 68.053L89.3942 53.8725C89.3942 53.8725 94.7799 55.6209 100.029 50.228C100.86 49.3651 101.566 47.821 102.545 47.1739C103.741 46.3678 105.119 46.5608 106.189 45.3573C106.674 44.7928 107.022 44.1236 107.203 43.4025C107.385 42.6815 107.396 41.9281 107.237 41.2019C107.168 40.884 107.089 40.498 107.328 40.2823C107.484 40.1721 107.671 40.1126 107.863 40.112C108.393 40.019 108.9 39.8221 109.354 39.5326C109.808 39.2432 110.199 38.867 110.506 38.4257C110.813 37.9844 111.03 37.4868 111.143 36.9617C111.256 36.4365 111.263 35.8942 111.165 35.3662C113.226 36.0247 115.264 34.3898 116.858 32.8911C116.368 33.368 120.035 34.0265 120.092 34.0265C120.336 34.1389 120.56 34.2925 120.752 34.4806Z" fill="#F4F4F4"/>
<path d="M99.3344 80.633C99.1522 80.633 94.7799 80.3946 89.0867 75.1719C83.6327 70.1877 83.6099 68.3598 83.7352 67.8943L88.859 53.691C88.9082 53.5501 89.0111 53.4342 89.1453 53.3684C89.2795 53.3025 89.4344 53.292 89.5763 53.3391C89.7813 53.4072 94.7002 54.8945 99.6191 49.8422C99.9552 49.4665 100.26 49.064 100.53 48.6387C100.978 47.9016 101.552 47.2484 102.227 46.7086C102.75 46.3856 103.317 46.1408 103.912 45.982C104.616 45.8458 105.262 45.5016 105.768 44.9942C106.198 44.4992 106.507 43.9115 106.671 43.2771C106.835 42.6428 106.85 41.9791 106.713 41.3384C106.618 41.093 106.593 40.8261 106.641 40.5674C106.689 40.3088 106.809 40.0687 106.986 39.8738C107.211 39.6871 107.491 39.5794 107.783 39.5672C108.244 39.4982 108.685 39.3332 109.077 39.0827C109.47 38.8323 109.805 38.5022 110.06 38.114C110.338 37.7491 110.534 37.3296 110.636 36.8833C110.738 36.4369 110.744 35.974 110.652 35.5254C110.63 35.4276 110.634 35.3256 110.664 35.2299C110.694 35.1342 110.749 35.0481 110.823 34.9804C110.895 34.9091 110.985 34.8595 111.084 34.8374C111.183 34.8153 111.286 34.8216 111.381 34.8555C113.157 35.4118 115.036 33.8904 116.471 32.5053C116.524 32.4521 116.587 32.4099 116.656 32.3811C116.725 32.3522 116.8 32.3374 116.875 32.3374C116.95 32.3374 117.025 32.3522 117.094 32.3811C117.163 32.4099 117.226 32.4521 117.279 32.5053C117.351 32.5869 117.401 32.6842 117.427 32.7892C118.28 33.1086 119.16 33.3481 120.058 33.5044L120.319 33.5726C120.622 33.6881 120.903 33.8531 121.151 34.0608C121.628 34.5583 121.921 35.2029 121.982 35.8887C122.242 37.9535 122.111 40.0486 121.595 42.065C120.827 45.5762 119.834 49.0348 118.623 52.4194L118.259 53.5548C116.642 58.4936 114.843 63.4664 113.044 68.3144C112.826 68.8128 112.473 69.2405 112.024 69.5495C111.575 69.8584 111.049 70.0362 110.504 70.0628C107.674 70.2743 104.844 69.6546 102.363 68.2803L99.8582 80.2356C99.8244 80.3487 99.7555 80.4481 99.6613 80.5195C99.5672 80.5909 99.4527 80.6307 99.3344 80.633ZM84.8055 68.2349C84.8055 68.2349 84.9535 69.8698 89.8382 74.3431C94.1536 78.2828 97.6606 79.2251 98.8904 79.4409L101.475 67.1109C101.497 67.0055 101.549 66.9085 101.624 66.8313C101.699 66.754 101.795 66.6998 101.9 66.6748C102.005 66.6498 102.115 66.6551 102.217 66.6901C102.32 66.7251 102.41 66.7884 102.477 66.8725C103.126 67.6672 107.533 69.3476 110.356 68.8934C110.7 68.887 111.035 68.7874 111.326 68.6054C111.617 68.4234 111.852 68.1658 112.007 67.8602C113.852 63.0236 115.605 58.0621 117.211 53.1006L117.575 51.9653C118.754 48.6233 119.72 45.2104 120.467 41.7471C120.938 39.8935 121.069 37.9704 120.855 36.0703C120.829 35.6285 120.661 35.2066 120.376 34.8669C120.226 34.7463 120.056 34.6505 119.875 34.583H119.762C118.725 34.4109 117.712 34.1175 116.744 33.7088C115.355 34.9804 113.636 36.1952 111.814 36.0476C111.814 37.0074 111.516 37.9437 110.96 38.7271C110.617 39.2433 110.169 39.6819 109.646 40.0144C109.122 40.3469 108.534 40.5659 107.92 40.6572H107.669C107.725 40.7758 107.764 40.9021 107.783 41.0318C107.976 41.8537 107.97 42.7095 107.767 43.5287C107.563 44.3479 107.166 45.1071 106.61 45.7435C105.973 46.4088 105.153 46.871 104.253 47.0719C103.763 47.1917 103.294 47.387 102.864 47.6509C102.315 48.1166 101.845 48.6689 101.475 49.2859C101.166 49.759 100.819 50.207 100.439 50.6256C95.8844 55.2805 91.3298 54.8604 89.7585 54.5539L84.8055 68.2463V68.2349Z" fill="#32323B"/>
<path d="M104.151 48.6387C104.416 47.3534 104.314 46.0197 103.855 44.7898C103.616 43.7969 103.233 42.8444 102.716 41.9628C102.474 41.5348 102.143 41.1641 101.744 40.8761C101.345 40.588 100.888 40.3894 100.405 40.2938C99.9547 40.2657 99.5037 40.3332 99.0817 40.4917C98.6597 40.6502 98.2763 40.8962 97.9567 41.2134C97.3201 41.8543 96.8374 42.6306 96.5448 43.4841C95.8645 45.3255 95.6831 47.3131 96.019 49.2466C96.3548 51.1801 97.196 52.9911 98.4577 54.4971L98.2755 54.1111" fill="#F4F4F4"/>
<path d="M98.4008 55.0643C98.318 55.0644 98.2362 55.0461 98.1613 55.0108C98.0865 54.9754 98.0205 54.9239 97.9681 54.8599C96.6483 53.2726 95.7679 51.3687 95.4143 49.3372C95.0608 47.3056 95.2464 45.2172 95.9527 43.2793C96.2784 42.3473 96.8117 41.5011 97.5127 40.8043C97.8894 40.4295 98.3428 40.1401 98.8419 39.9559C99.341 39.7718 99.8741 39.6971 100.405 39.737C100.993 39.8233 101.555 40.0406 102.047 40.3727C102.54 40.7049 102.952 41.1434 103.251 41.6558C103.775 42.5906 104.158 43.5965 104.39 44.6418C104.881 45.975 104.984 47.4196 104.686 48.8085C104.642 48.9591 104.54 49.0861 104.403 49.1617C104.265 49.2373 104.103 49.2552 103.952 49.2116C103.801 49.1679 103.673 49.0662 103.597 48.9289C103.522 48.7915 103.504 48.6298 103.547 48.4793C103.762 47.2914 103.652 46.0678 103.229 44.937C103.023 44.0031 102.681 43.1043 102.215 42.2689C102.006 41.9017 101.717 41.5851 101.371 41.3418C101.024 41.0984 100.629 40.9343 100.211 40.861C99.8432 40.842 99.4754 40.901 99.1319 41.0341C98.7884 41.1672 98.4772 41.3713 98.2186 41.6331C97.6595 42.2176 97.2393 42.9199 96.9889 43.6881C96.392 45.3227 96.2044 47.078 96.4425 48.8014C96.6807 50.5248 97.3372 52.1642 98.3552 53.577C98.43 53.5991 98.4992 53.6368 98.5581 53.6877C98.617 53.7386 98.6643 53.8015 98.6968 53.8722L98.879 54.2582C98.9369 54.3821 98.9481 54.5226 98.9104 54.654C98.8728 54.7854 98.7888 54.8988 98.674 54.9735C98.5916 55.0253 98.4979 55.0565 98.4008 55.0643Z" fill="#32323B"/>
<path d="M102.033 67.2355C102.033 67.2355 98.2186 64.5788 97.1711 61.0479C97.1711 61.0479 95.0305 68.7001 100.826 72.9464L102.033 67.2355Z" fill="#32323B"/>
<path d="M100.826 73.5141C100.708 73.5135 100.593 73.478 100.496 73.4119C94.4497 68.9727 96.6017 60.923 96.6131 60.923C96.6455 60.803 96.7166 60.6969 96.8153 60.621C96.914 60.5451 97.035 60.5036 97.1597 60.5029C97.2824 60.5047 97.4014 60.5452 97.4996 60.6187C97.5978 60.6921 97.6701 60.7947 97.7062 60.9117C98.6741 64.1928 102.261 66.7587 102.352 66.7928C102.442 66.8567 102.512 66.9456 102.552 67.0484C102.593 67.1513 102.602 67.2637 102.58 67.3718L101.373 73.0486C101.355 73.143 101.313 73.2314 101.252 73.305C101.19 73.3786 101.11 73.435 101.02 73.4687C100.958 73.4946 100.893 73.5099 100.826 73.5141ZM97.4102 63.0575C97.1911 64.6694 97.3519 66.31 97.8796 67.8492C98.4073 69.3884 99.2875 70.7837 100.45 71.9246L101.384 67.474C99.7959 66.2639 98.4515 64.7654 97.4216 63.0575H97.4102Z" fill="#32323B"/>
<path d="M115.623 46.5266C115.973 45.5599 115.951 44.6657 115.573 44.5292C115.194 44.3928 114.603 45.0658 114.253 46.0325C113.902 46.9991 113.924 47.8933 114.303 48.0298C114.681 48.1662 115.272 47.4932 115.623 46.5266Z" fill="#32323B"/>
<path d="M113.579 60.6961L108.705 56.8359C108.705 56.8359 104.937 62.9782 106.804 66.214C108.671 69.4497 112.36 63.9092 113.579 60.6961Z" fill="#F4F4F4"/>
<path d="M108.204 67.7691C107.8 67.757 107.406 67.6313 107.07 67.4064C106.734 67.1814 106.468 66.8664 106.303 66.4975C104.299 63.0119 108.056 56.8016 108.227 56.5404C108.269 56.4716 108.325 56.4126 108.392 56.3675C108.459 56.3224 108.535 56.2923 108.614 56.2793C108.692 56.2642 108.772 56.2666 108.849 56.2863C108.926 56.3059 108.997 56.3423 109.058 56.3928L113.932 60.253C114.024 60.3296 114.092 60.4326 114.124 60.5482C114.157 60.6639 114.153 60.7866 114.114 60.9002C113.328 62.9665 110.812 67.5647 108.421 67.7123L108.204 67.7691ZM108.876 57.6985C108.034 59.2312 105.927 63.5569 107.293 65.9412C107.669 66.5997 108.034 66.6451 108.273 66.6337C109.639 66.5202 111.802 63.5342 112.896 60.8888L108.876 57.6985Z" fill="#32323B"/>
<path d="M186.027 75.1772L231.138 133.84L119.193 219.429L74.0824 160.766L186.027 75.1772Z" fill="#FF9ACB"/>
<path d="M119.192 219.986C119.106 219.985 119.02 219.964 118.943 219.925C118.866 219.885 118.799 219.829 118.748 219.759L73.6355 161.107C73.5898 161.048 73.5562 160.98 73.5366 160.908C73.5171 160.836 73.512 160.761 73.5217 160.687C73.5441 160.536 73.6211 160.399 73.738 160.301L185.677 74.7176C185.736 74.6708 185.803 74.6362 185.875 74.616C185.947 74.5957 186.023 74.5902 186.097 74.5998C186.172 74.6093 186.243 74.6337 186.308 74.6715C186.373 74.7093 186.429 74.7598 186.474 74.8198L231.587 133.484C231.633 133.542 231.667 133.61 231.687 133.682C231.706 133.754 231.711 133.83 231.701 133.904C231.678 134.051 231.6 134.184 231.484 134.278L119.545 219.861C119.445 219.941 119.321 219.985 119.192 219.986ZM74.888 160.857L119.295 218.624L230.323 133.722L185.916 75.9665L74.888 160.857Z" fill="#32323B"/>
<path d="M92.7987 107.552C92.7987 107.552 127.573 149.912 133.858 151.422C140.143 152.932 150.505 151.082 149.799 154.397C149.093 157.712 139.073 157.724 139.073 157.724C139.073 157.724 151.347 163.06 149.833 166.659C148.318 170.258 142.523 173.198 137.308 170.984C132.093 168.771 129.212 164.888 124.68 162.674C120.149 160.46 77.6321 121.211 77.6321 121.211L92.7987 107.552Z" fill="#F4F4F4"/>
<path d="M141.088 172.324C139.71 172.326 138.346 172.047 137.08 171.506C134.498 170.304 132.093 168.757 129.929 166.908C128.237 165.471 126.393 164.222 124.43 163.184C119.875 160.913 78.9757 123.231 77.2335 121.619C77.1761 121.565 77.1304 121.5 77.0991 121.427C77.0677 121.355 77.0515 121.277 77.0514 121.199C77.0523 121.119 77.07 121.04 77.1033 120.968C77.1367 120.896 77.1849 120.831 77.2449 120.778L92.4115 107.154C92.4698 107.105 92.5372 107.068 92.61 107.044C92.6828 107.021 92.7595 107.012 92.8356 107.019C92.9118 107.025 92.9859 107.046 93.0538 107.081C93.1218 107.116 93.1821 107.164 93.2313 107.222C102.876 118.962 128.984 149.696 133.994 150.888C136.678 151.392 139.405 151.635 142.136 151.615C145.973 151.717 148.967 151.796 150.015 153.079C150.172 153.285 150.282 153.524 150.335 153.777C150.388 154.03 150.384 154.292 150.322 154.544C149.719 157.212 144.572 157.95 141.407 158.222C145.164 160.062 151.655 163.774 150.322 166.908C149.276 169.053 147.435 170.71 145.187 171.529C143.885 172.055 142.493 172.325 141.088 172.324ZM78.4633 121.233C83.0178 125.479 120.786 160.153 124.931 162.185C126.96 163.262 128.869 164.553 130.624 166.034C132.705 167.83 135.028 169.328 137.524 170.484C138.669 170.962 139.898 171.209 141.139 171.209C142.381 171.209 143.61 170.962 144.755 170.484C146.738 169.784 148.37 168.343 149.309 166.465C150.209 164.331 143.73 160.391 138.845 158.268C138.725 158.216 138.627 158.124 138.567 158.008C138.507 157.893 138.488 157.76 138.515 157.632C138.539 157.503 138.608 157.386 138.71 157.303C138.813 157.22 138.941 157.176 139.073 157.178C142.751 157.178 148.774 156.395 149.241 154.306C149.271 154.219 149.279 154.126 149.266 154.035C149.252 153.944 149.216 153.857 149.161 153.783C148.478 152.909 145.256 152.83 142.147 152.75C139.332 152.768 136.521 152.514 133.755 151.989C127.641 150.536 96.7611 113.251 92.7645 108.403L78.4633 121.233Z" fill="#32323B"/>
<path d="M81.0821 86.1279L95.3606 104.816L75.036 123.504L62.8299 109.482" fill="#32323B"/>
<path d="M75.0361 124.083C74.8829 124.074 74.7396 124.004 74.6375 123.89L62.4314 109.868C62.3271 109.762 62.2686 109.62 62.2686 109.471C62.2686 109.322 62.3271 109.18 62.4314 109.074C62.4843 109.02 62.5473 108.978 62.6167 108.949C62.686 108.921 62.7604 108.906 62.8356 108.906C62.9108 108.906 62.9852 108.921 63.0545 108.949C63.1239 108.978 63.1869 109.02 63.2398 109.074L75.0588 122.698L94.5978 104.782L80.6267 86.5028C80.5346 86.3824 80.4943 86.2304 80.5146 86.0803C80.5349 85.9302 80.6141 85.7943 80.7349 85.7024C80.8557 85.6106 81.0081 85.5703 81.1587 85.5906C81.3092 85.6108 81.4455 85.6898 81.5377 85.8103L95.8503 104.464C95.9342 104.579 95.9735 104.721 95.9609 104.863C95.9484 105.005 95.8848 105.137 95.782 105.236L75.4573 123.924C75.3415 124.027 75.1914 124.084 75.0361 124.083Z" fill="#32323B"/>
<path d="M291.297 111.594C294.667 111.812 297.957 112.716 300.964 114.25C306.201 116.748 311.211 120.858 312.35 126.535C313.295 131.076 311.541 135.867 309.321 140.012C307.101 144.156 304.368 148.107 303.127 152.637C301.886 157.167 302.466 162.616 306.065 165.648C301.316 163.547 296.477 161.379 292.651 157.882C290.374 155.827 288.484 153.17 288.268 150.15C288.276 147.648 288.885 145.183 290.044 142.963C291.501 139.557 293.061 136.095 293.289 132.405C293.517 128.715 292.15 124.662 288.94 122.8C286.138 121.165 276.972 121.324 278.407 116.192C279.569 112.116 288.017 111.412 291.297 111.594Z" fill="#F4F4F4"/>
<path d="M306.11 166.159C306.035 166.176 305.957 166.176 305.883 166.159C301.146 164.058 296.25 161.89 292.31 158.291C289.52 155.736 287.949 152.932 287.756 150.173C287.756 147.581 288.381 145.027 289.577 142.725L289.771 142.282C291.137 139.092 292.561 135.788 292.777 132.359C293.027 128.431 291.433 124.866 288.712 123.277C287.568 122.753 286.363 122.371 285.125 122.141C282.415 121.505 279.341 120.779 278.191 118.849C277.947 118.418 277.796 117.941 277.747 117.448C277.698 116.955 277.752 116.458 277.906 115.988C279.159 111.514 288.017 110.844 291.319 110.981C294.77 111.195 298.139 112.118 301.214 113.694C304.994 115.499 311.542 119.541 312.965 126.376C313.785 130.361 312.805 134.766 309.879 140.227C309.31 141.306 308.74 142.362 308.091 143.429C306.255 146.34 304.791 149.467 303.731 152.739C302.683 156.52 302.785 162.038 306.486 165.228C306.593 165.315 306.665 165.439 306.686 165.575C306.707 165.711 306.676 165.851 306.6 165.966C306.541 166.037 306.465 166.091 306.38 166.125C306.294 166.159 306.202 166.17 306.11 166.159ZM290.557 112.082C286.742 112.082 279.933 113.036 279.034 116.283C278.919 116.605 278.873 116.947 278.901 117.288C278.928 117.628 279.028 117.959 279.193 118.258C280.092 119.78 282.916 120.438 285.41 121.029C286.758 121.26 288.068 121.672 289.304 122.255C292.401 124.049 294.223 128.034 293.938 132.382C293.711 136.015 292.253 139.41 290.83 142.68L290.636 143.134C289.6 145.564 288.746 147.766 288.917 150.048C289.145 153.159 291.319 155.725 293.118 157.405C296.366 160.158 300.028 162.384 303.97 164.002C301.692 160.516 301.692 155.816 302.649 152.432C303.731 149.064 305.235 145.844 307.124 142.85C307.727 141.794 308.331 140.75 308.9 139.682C311.69 134.471 312.635 130.304 311.872 126.592C310.551 120.234 304.334 116.374 300.747 114.705C297.814 113.198 294.601 112.313 291.308 112.105L290.557 112.082Z" fill="#32323B"/>
<path d="M287.198 112.729C288.305 114.644 288.731 116.877 288.405 119.064C288.309 120.541 287.773 121.956 286.867 123.129C286.27 123.796 285.524 124.315 284.69 124.644C283.856 124.973 282.956 125.104 282.062 125.025C281.257 125.013 280.485 124.701 279.899 124.151C279.475 123.627 279.2 123 279.102 122.334C278.123 117.679 281.447 103.714 287.198 112.729Z" fill="#32323B"/>
<path d="M282.518 125.57H282.017C281.068 125.548 280.162 125.171 279.478 124.514C278.984 123.914 278.662 123.193 278.544 122.425C277.827 119.019 279.284 110.731 282.597 109.38C284.26 108.71 286.013 109.721 287.676 112.4C288.854 114.427 289.311 116.791 288.974 119.11C288.865 120.695 288.287 122.213 287.311 123.47C286.708 124.139 285.968 124.673 285.142 125.035C284.315 125.397 283.421 125.58 282.518 125.57ZM283.565 110.311C283.381 110.312 283.199 110.35 283.03 110.425C280.548 111.435 278.965 118.94 279.614 122.187C279.695 122.748 279.918 123.28 280.263 123.731C280.76 124.169 281.399 124.415 282.062 124.423C282.866 124.495 283.675 124.38 284.426 124.086C285.177 123.792 285.849 123.329 286.389 122.732C287.224 121.647 287.715 120.339 287.801 118.974C288.106 116.912 287.705 114.808 286.662 113.002C285.899 111.719 284.738 110.311 283.565 110.311Z" fill="#32323B"/>
<path d="M257.149 142.839C258.515 144.417 260.565 145.314 263.981 144.962C266.808 144.577 269.493 143.492 271.792 141.806C276.284 138.637 279.802 134.282 281.95 129.23C284.098 124.178 284.792 118.629 283.952 113.206C282.085 102.238 271.109 91.3391 259.301 95.5512C257.31 96.2775 255.503 97.4293 254.006 98.9258C252.509 100.422 251.359 102.227 250.636 104.214C249.842 103.953 248.99 103.927 248.182 104.138C247.374 104.35 246.644 104.79 246.081 105.406C243.03 108.449 243.155 111.685 244.795 115.329C247.493 121.312 250.807 127.012 253.232 133.12C254.61 136.685 255.156 140.511 257.149 142.839Z" fill="#F4F4F4"/>
<path d="M262.535 145.654C261.445 145.723 260.354 145.541 259.345 145.124C258.337 144.707 257.437 144.065 256.716 143.247C255.348 141.343 254.376 139.185 253.858 136.901C253.494 135.765 253.118 134.539 252.72 133.37C251.296 129.793 249.532 126.296 247.824 122.902C246.685 120.529 245.398 118.076 244.294 115.613C242.347 111.287 242.791 107.938 245.694 105.043C246.282 104.423 247.016 103.96 247.83 103.699C248.644 103.437 249.511 103.383 250.351 103.544C251.141 101.593 252.334 99.8288 253.852 98.3676C255.371 96.9063 257.181 95.7803 259.164 95.0628C261.469 94.2381 263.93 93.9425 266.365 94.198C268.799 94.4536 271.145 95.2537 273.226 96.5387C276.188 98.3572 278.733 100.777 280.694 103.641C282.656 106.505 283.991 109.748 284.613 113.16C285.422 118.687 284.682 124.329 282.476 129.462C280.27 134.596 276.682 139.021 272.111 142.248C269.732 143.985 266.958 145.104 264.038 145.507C263.54 145.583 263.038 145.632 262.535 145.654ZM257.536 142.464C258.925 144.087 260.952 144.735 263.878 144.394C266.613 144.019 269.209 142.965 271.427 141.328C275.817 138.212 279.255 133.944 281.359 128.998C283.463 124.052 284.152 118.621 283.349 113.308C282.763 110.06 281.498 106.971 279.636 104.242C277.774 101.514 275.358 99.2062 272.543 97.4697C270.604 96.2755 268.421 95.531 266.154 95.2912C263.888 95.0515 261.596 95.3226 259.449 96.0846C257.536 96.7772 255.798 97.8806 254.36 99.3168C252.922 100.753 251.818 102.487 251.126 104.395C251.099 104.468 251.058 104.534 251.005 104.591C250.952 104.648 250.889 104.693 250.818 104.725C250.747 104.758 250.669 104.775 250.59 104.775C250.512 104.775 250.434 104.758 250.363 104.725C249.661 104.513 248.913 104.508 248.208 104.709C247.503 104.91 246.872 105.31 246.389 105.86C243.804 108.437 243.451 111.219 245.25 115.159C246.389 117.6 247.528 120.041 248.769 122.402C250.477 125.808 252.253 129.35 253.699 132.961C254.177 134.164 254.553 135.391 254.917 136.583C255.411 138.712 256.307 140.727 257.559 142.521L257.536 142.464Z" fill="#32323B"/>
<path d="M248.336 117.521C248.336 117.521 241.185 123.606 241.766 125.468C242.347 127.33 246.07 127.273 246.07 127.273" fill="#F4F4F4"/>
<path d="M246.002 127.83C245.33 127.83 241.88 127.727 241.219 125.627C240.559 123.527 246.218 118.576 247.96 117.089C248.077 116.993 248.227 116.946 248.378 116.959C248.529 116.972 248.669 117.043 248.769 117.157C248.817 117.213 248.854 117.279 248.878 117.35C248.901 117.42 248.909 117.495 248.903 117.569C248.896 117.643 248.875 117.715 248.84 117.781C248.806 117.847 248.758 117.905 248.7 117.952C245.387 120.779 242.028 124.389 242.313 125.286C242.688 126.422 245.193 126.717 246.059 126.694C246.208 126.694 246.351 126.752 246.457 126.856C246.564 126.96 246.625 127.102 246.628 127.251C246.628 127.4 246.57 127.544 246.466 127.652C246.362 127.76 246.22 127.824 246.07 127.83H246.002Z" fill="#32323B"/>
<path d="M244.453 158.495C252.492 159.109 266.212 151.036 266.315 150.73C267.775 145.525 268.972 140.25 269.902 134.925C269.902 134.925 264.459 133.415 263.07 126.047C261.681 118.679 254.894 117.566 252.207 107.881C248.302 109.55 247.653 115.261 246.651 118.815C245.246 123.826 243.964 128.859 242.802 133.915C242.051 137.117 250.249 139.592 251.911 139.013C250.181 143.804 250.181 143.804 244.453 158.495Z" fill="#F4F4F4"/>
<path d="M245.296 159.097C245 159.097 244.704 159.097 244.408 159.097C244.32 159.09 244.236 159.062 244.161 159.017C244.086 158.972 244.022 158.91 243.975 158.836C243.933 158.757 243.911 158.67 243.911 158.581C243.911 158.491 243.933 158.404 243.975 158.325C249.338 144.542 249.668 143.69 251.205 139.705C248.383 139.48 245.689 138.429 243.463 136.685C243.024 136.364 242.685 135.927 242.484 135.423C242.282 134.919 242.227 134.369 242.324 133.835C243.463 128.794 244.783 123.708 246.184 118.724C246.343 118.134 246.503 117.475 246.674 116.782C247.505 113.274 248.552 108.914 252.071 107.416C252.144 107.382 252.223 107.365 252.304 107.365C252.385 107.365 252.464 107.382 252.537 107.416C252.611 107.452 252.676 107.503 252.729 107.566C252.782 107.628 252.821 107.701 252.845 107.779C254.188 112.65 256.568 115.227 258.857 117.725C261.146 120.223 263.024 122.266 263.707 125.979C264.971 132.882 269.879 134.358 270.084 134.415C270.221 134.452 270.339 134.539 270.415 134.659C270.49 134.779 270.519 134.922 270.494 135.062C269.567 140.419 268.362 145.724 266.884 150.957C266.577 151.751 253.3 159.097 245.296 159.097ZM245.296 157.962C252.651 157.962 264.448 151.445 265.791 150.412C267.188 145.436 268.328 140.392 269.207 135.3C267.772 134.721 263.673 132.541 262.5 126.149C261.886 122.743 260.052 120.768 257.946 118.463C255.158 115.754 253.072 112.411 251.866 108.721C249.327 110.243 248.45 113.978 247.71 117.01C247.539 117.713 247.379 118.383 247.209 118.996C245.82 123.969 244.521 129.033 243.36 134.063C243.323 134.4 243.377 134.742 243.517 135.051C243.657 135.361 243.878 135.627 244.157 135.822C246.252 137.764 250.841 138.797 251.82 138.49C251.922 138.461 252.03 138.461 252.133 138.489C252.235 138.517 252.328 138.572 252.401 138.649C252.473 138.727 252.522 138.824 252.543 138.928C252.563 139.033 252.553 139.141 252.515 139.24C250.704 143.929 250.704 144.008 245.273 157.962H245.296Z" fill="#32323B"/>
<path d="M244.032 130.248C244.032 130.248 247.232 133.745 250.442 130.328L244.032 130.248Z" fill="#F4F4F4"/>
<path d="M247.402 132.394C245.975 132.291 244.636 131.664 243.645 130.634C243.594 130.579 243.555 130.514 243.529 130.444C243.503 130.373 243.491 130.299 243.494 130.224C243.498 130.149 243.516 130.075 243.547 130.007C243.579 129.939 243.624 129.878 243.679 129.828C243.734 129.777 243.799 129.738 243.87 129.712C243.94 129.686 244.015 129.675 244.09 129.678C244.165 129.681 244.239 129.699 244.307 129.73C244.375 129.762 244.437 129.807 244.487 129.862C245.262 130.664 246.301 131.161 247.414 131.258C247.921 131.224 248.417 131.09 248.872 130.864C249.327 130.638 249.733 130.324 250.067 129.941C250.118 129.887 250.18 129.843 250.249 129.812C250.317 129.782 250.391 129.765 250.466 129.763C250.541 129.761 250.616 129.773 250.686 129.8C250.756 129.827 250.821 129.867 250.875 129.919C250.93 129.97 250.974 130.032 251.004 130.1C251.035 130.168 251.052 130.242 251.054 130.317C251.056 130.392 251.043 130.466 251.017 130.536C250.99 130.606 250.949 130.67 250.898 130.725C250.465 131.232 249.93 131.642 249.328 131.93C248.726 132.217 248.07 132.375 247.402 132.394Z" fill="#32323B"/>
<path d="M252.014 139.035C252.014 139.035 256.284 140.046 259.107 137.707C259.107 137.707 256.637 145.268 249.475 145.598L252.014 139.035Z" fill="#32323B"/>
<path d="M249.475 146.166C249.384 146.167 249.295 146.147 249.214 146.107C249.133 146.068 249.063 146.01 249.008 145.939C248.955 145.859 248.921 145.769 248.909 145.674C248.897 145.58 248.908 145.484 248.939 145.394L251.49 138.831C251.541 138.704 251.635 138.599 251.756 138.535C251.877 138.471 252.016 138.451 252.15 138.479C252.15 138.479 256.181 139.399 258.743 137.265C258.842 137.193 258.962 137.154 259.085 137.154C259.207 137.154 259.327 137.193 259.426 137.265C259.53 137.333 259.608 137.433 259.649 137.55C259.69 137.667 259.692 137.794 259.654 137.912C259.654 137.991 256.967 145.859 249.497 146.2L249.475 146.166ZM252.378 139.683L250.34 144.951C254.45 144.361 256.785 141.136 257.844 139.127C256.106 139.805 254.217 139.997 252.378 139.683Z" fill="#32323B"/>
<path d="M251.453 115.765C251.667 114.766 251.521 113.888 251.127 113.804C250.733 113.72 250.241 114.463 250.027 115.462C249.814 116.462 249.96 117.34 250.353 117.424C250.747 117.508 251.239 116.765 251.453 115.765Z" fill="#32323B"/>
<path d="M257.798 123.004C258.295 121.791 259.124 120.741 260.189 119.973C260.919 119.276 261.747 118.691 262.649 118.236C263.107 118.018 263.609 117.905 264.117 117.905C264.626 117.905 265.127 118.018 265.586 118.236C265.973 118.46 266.307 118.763 266.568 119.125C266.829 119.487 267.011 119.9 267.101 120.336C267.276 121.217 267.244 122.126 267.01 122.993C266.553 124.893 265.602 126.64 264.253 128.057C262.904 129.475 261.203 130.512 259.324 131.065L259.688 130.85" fill="#F4F4F4"/>
<path d="M259.324 131.587C259.212 131.589 259.103 131.558 259.01 131.497C258.916 131.437 258.843 131.349 258.8 131.247C258.747 131.122 258.741 130.982 258.783 130.853C258.825 130.724 258.912 130.614 259.028 130.543L259.392 130.316C259.458 130.276 259.532 130.251 259.608 130.241C259.685 130.231 259.762 130.237 259.836 130.259C261.464 129.653 262.919 128.658 264.072 127.362C265.225 126.065 266.042 124.507 266.452 122.823C266.665 122.041 266.697 121.222 266.543 120.427C266.473 120.067 266.328 119.726 266.116 119.426C265.904 119.127 265.63 118.876 265.313 118.69C264.927 118.522 264.508 118.441 264.087 118.453C263.666 118.465 263.253 118.569 262.876 118.758C262.04 119.192 261.272 119.746 260.599 120.404C259.602 121.1 258.814 122.054 258.322 123.163C258.275 123.306 258.173 123.426 258.039 123.496C257.905 123.566 257.749 123.581 257.604 123.538C257.462 123.493 257.342 123.394 257.272 123.263C257.201 123.131 257.186 122.977 257.229 122.834C257.762 121.516 258.658 120.374 259.813 119.541C260.581 118.796 261.461 118.176 262.421 117.702C262.954 117.446 263.537 117.313 264.129 117.312C264.72 117.313 265.304 117.446 265.837 117.702C266.298 117.965 266.697 118.323 267.009 118.752C267.321 119.18 267.539 119.67 267.647 120.189C267.836 121.152 267.805 122.145 267.556 123.095C267.067 125.093 266.063 126.929 264.643 128.421C263.223 129.913 261.436 131.008 259.46 131.599L259.324 131.587Z" fill="#32323B"/>
<path d="M243.11 152.535C243.11 152.535 267.476 142.726 275.094 151.286C282.711 159.847 286.936 179.67 283.713 222.609L226.713 220.588C226.713 220.588 231.268 157.814 243.11 152.535Z" fill="#32323B"/>
<path d="M209.349 165.524C206.719 163.253 184.823 134.336 184.538 129.601C184.254 124.867 182.261 116.613 181.122 117.192C179.984 117.771 179.415 125.298 179.415 125.298C179.415 125.298 174.006 115.602 171.729 115.682C169.451 115.761 164.032 122.04 164.316 125.298C164.601 128.557 189.674 188.197 201.345 189.9C213.016 191.603 243.383 177.967 246.15 177.411C248.917 176.855 259.051 154.704 246.15 151.445C246.15 151.434 211.991 167.76 209.349 165.524Z" fill="#F4F4F4"/>
<path d="M203.565 190.603C202.803 190.608 202.042 190.558 201.288 190.455C189.093 188.684 164.088 128.965 163.713 125.343C163.531 123.197 165.466 120.177 167.129 118.236C167.766 117.52 169.975 115.17 171.683 115.113C173.721 115.113 177.114 120.336 178.948 123.447C179.244 120.608 179.802 117.18 180.815 116.635C180.94 116.565 181.081 116.529 181.225 116.529C181.368 116.529 181.509 116.565 181.635 116.635C183.217 117.543 184.823 125.627 185.051 129.487C185.313 133.835 206.525 162.333 209.657 165.001C211.285 166.136 229.332 158.734 245.854 150.843C245.913 150.818 245.977 150.805 246.042 150.805C246.106 150.805 246.17 150.818 246.229 150.843C250.784 151.978 253.187 155.589 253.061 161.186C252.89 168.271 248.404 177.467 246.229 177.921C245.66 178.035 243.565 178.852 240.901 179.897C231.814 183.484 213.562 190.603 203.565 190.603ZM171.763 116.249C171.125 116.249 169.736 117.134 168.085 118.985C166.058 121.256 164.783 123.787 164.908 125.241C165.238 129.055 190.664 187.765 201.447 189.331C210.385 190.637 230.755 182.69 240.548 178.875C243.463 177.739 245.398 176.979 246.059 176.842C247.277 176.593 251.832 168.498 252.002 161.197C252.116 156.202 250.181 153.114 246.229 152.035C244.92 152.659 237.041 156.383 228.979 159.835C210.909 167.578 209.565 166.443 208.996 165.954C206.525 163.843 184.299 134.687 183.946 129.623C183.684 125.263 182.124 118.985 181.236 117.827C180.747 118.678 180.189 122.232 179.961 125.32C179.954 125.444 179.908 125.562 179.827 125.657C179.747 125.751 179.638 125.817 179.517 125.844C179.395 125.871 179.268 125.858 179.155 125.806C179.042 125.755 178.949 125.668 178.891 125.559C176.408 121.074 172.97 116.249 171.763 116.249Z" fill="#32323B"/>
<path d="M226.713 220.633L225.393 229.432H283.713V222.609L226.713 220.633Z" fill="#32323B"/>
<path d="M283.725 230H225.393C225.311 230.001 225.23 229.984 225.156 229.951C225.081 229.917 225.015 229.868 224.962 229.806C224.909 229.745 224.87 229.672 224.848 229.594C224.826 229.515 224.821 229.433 224.835 229.353L226.144 220.543C226.158 220.403 226.228 220.274 226.336 220.185C226.445 220.096 226.585 220.053 226.725 220.066L283.725 222.041C283.872 222.047 284.011 222.109 284.113 222.215C284.215 222.321 284.271 222.462 284.271 222.609V229.421C284.274 229.57 284.219 229.714 284.117 229.822C284.014 229.93 283.874 229.994 283.725 230ZM226.064 228.865H283.155V223.188L227.203 221.246L226.064 228.865Z" fill="#32323B"/>
<path d="M46.5133 38.7838H17.6376C17.4875 38.7809 17.3444 38.7201 17.2382 38.6143C17.1321 38.5085 17.0712 38.3658 17.0682 38.2161C17.0682 38.0656 17.1282 37.9212 17.235 37.8147C17.3418 37.7082 17.4866 37.6484 17.6376 37.6484H46.5133C46.6643 37.6484 46.8091 37.7082 46.9159 37.8147C47.0226 37.9212 47.0826 38.0656 47.0826 38.2161C47.0826 38.3667 47.0226 38.5111 46.9159 38.6175C46.8091 38.724 46.6643 38.7838 46.5133 38.7838Z" fill="#C6C6C6"/>
<path d="M32.0868 54.9625H17.6376C17.4866 54.9625 17.3418 54.9027 17.235 54.7962C17.1282 54.6898 17.0682 54.5454 17.0682 54.3948C17.0712 54.2452 17.1321 54.1025 17.2382 53.9966C17.3444 53.8908 17.4875 53.8301 17.6376 53.8271H32.0868C32.2378 53.8271 32.3826 53.887 32.4894 53.9934C32.5961 54.0999 32.6561 54.2443 32.6561 54.3948C32.6561 54.5454 32.5961 54.6898 32.4894 54.7962C32.3826 54.9027 32.2378 54.9625 32.0868 54.9625Z" fill="#C6C6C6"/>
<path d="M323.247 185.767H303.081C302.93 185.767 302.786 185.707 302.679 185.6C302.572 185.494 302.512 185.35 302.512 185.199C302.512 185.048 302.572 184.904 302.679 184.798C302.786 184.691 302.93 184.631 303.081 184.631H323.269C323.42 184.631 323.565 184.691 323.672 184.798C323.779 184.904 323.839 185.048 323.839 185.199C323.839 185.276 323.823 185.351 323.793 185.422C323.763 185.492 323.719 185.556 323.664 185.609C323.609 185.662 323.543 185.703 323.471 185.73C323.4 185.757 323.323 185.77 323.247 185.767Z" fill="#C6C6C6"/>
<path d="M315.766 197.722H303.081C302.93 197.722 302.786 197.662 302.679 197.556C302.572 197.449 302.512 197.305 302.512 197.154C302.512 197.004 302.572 196.859 302.679 196.753C302.786 196.646 302.93 196.586 303.081 196.586H315.789C315.939 196.589 316.082 196.65 316.188 196.756C316.294 196.862 316.355 197.004 316.358 197.154C316.358 197.231 316.343 197.306 316.312 197.377C316.282 197.447 316.238 197.511 316.183 197.564C316.128 197.617 316.062 197.658 315.991 197.685C315.919 197.712 315.842 197.725 315.766 197.722Z" fill="#C6C6C6"/>
<path d="M321.607 216.751H306.395C305.36 216.748 304.368 216.336 303.637 215.607C302.905 214.877 302.492 213.888 302.489 212.856V210.37C302.492 209.338 302.905 208.349 303.637 207.619C304.368 206.89 305.36 206.479 306.395 206.476H321.607C322.642 206.479 323.634 206.89 324.365 207.619C325.097 208.349 325.51 209.338 325.513 210.37V212.822C325.516 213.336 325.417 213.845 325.222 214.321C325.027 214.797 324.74 215.23 324.377 215.595C324.015 215.959 323.583 216.249 323.108 216.448C322.632 216.646 322.122 216.749 321.607 216.751ZM306.395 207.668C305.661 207.668 304.957 207.958 304.438 208.476C303.919 208.993 303.628 209.695 303.628 210.427V212.879C303.628 213.611 303.919 214.312 304.438 214.83C304.957 215.347 305.661 215.638 306.395 215.638H321.607C322.341 215.638 323.045 215.347 323.563 214.83C324.082 214.312 324.374 213.611 324.374 212.879V210.37C324.374 209.638 324.082 208.936 323.563 208.419C323.045 207.902 322.341 207.611 321.607 207.611L306.395 207.668Z" fill="#C6C6C6"/>
<path d="M24.8564 83.5619C23.1111 83.5619 21.405 83.0458 19.9538 82.079C18.5027 81.1121 17.3716 79.7379 16.7037 78.1301C16.0358 76.5223 15.8611 74.7531 16.2016 73.0463C16.5421 71.3394 17.3825 69.7716 18.6166 68.541C19.8507 67.3105 21.4231 66.4725 23.1349 66.1329C24.8466 65.7934 26.6209 65.9677 28.2334 66.6337C29.8458 67.2996 31.224 68.4274 32.1936 69.8744C33.1633 71.3214 33.6808 73.0226 33.6808 74.7629C33.6778 77.0956 32.7471 79.3319 31.0929 80.9814C29.4386 82.6309 27.1959 83.5588 24.8564 83.5619ZM24.8564 67.0992C23.3363 67.0992 21.8504 67.5487 20.5864 68.3908C19.3225 69.2329 18.3374 70.4298 17.7557 71.8301C17.174 73.2305 17.0218 74.7714 17.3183 76.258C17.6149 77.7446 18.3469 79.1101 19.4218 80.1819C20.4966 81.2537 21.8661 81.9835 23.357 82.2792C24.8479 82.5749 26.3933 82.4232 27.7976 81.8431C29.202 81.2631 30.4024 80.2808 31.2469 79.0205C32.0914 77.7603 32.5422 76.2786 32.5422 74.7629C32.5392 72.7313 31.7285 70.7837 30.2878 69.3472C28.8471 67.9106 26.8939 67.1022 24.8564 67.0992Z" fill="#C6C6C6"/>
<path d="M24.8564 77.6697C24.7756 77.659 24.6978 77.6324 24.6274 77.5915C24.5571 77.5506 24.4955 77.4961 24.4465 77.4313L21.133 72.8899C21.0889 72.8295 21.0572 72.761 21.0396 72.6884C21.022 72.6158 21.019 72.5404 21.0306 72.4666C21.0422 72.3928 21.0683 72.322 21.1074 72.2583C21.1465 72.1945 21.1977 72.1391 21.2583 72.0951C21.3189 72.0511 21.3875 72.0195 21.4603 72.0019C21.5332 71.9844 21.6088 71.9814 21.6828 71.993C21.7568 72.0045 21.8278 72.0306 21.8917 72.0695C21.9556 72.1085 22.0112 72.1596 22.0553 72.22L24.9816 76.2051L36.5501 64.8515C36.6021 64.7987 36.6641 64.7567 36.7325 64.728C36.801 64.6993 36.8744 64.6846 36.9487 64.6846C37.0229 64.6846 37.0964 64.6993 37.1648 64.728C37.2332 64.7567 37.2952 64.7987 37.3472 64.8515C37.4005 64.9043 37.4429 64.9671 37.4718 65.0363C37.5007 65.1055 37.5156 65.1797 37.5156 65.2546C37.5156 65.3295 37.5007 65.4037 37.4718 65.4729C37.4429 65.5421 37.4005 65.6049 37.3472 65.6576L25.2549 77.5334C25.2012 77.5819 25.1381 77.6189 25.0696 77.6423C25.0011 77.6657 24.9286 77.6751 24.8564 77.6697Z" fill="#32323B"/>
</svg>
