<svg width="15" height="18" viewBox="0 0 15 18" fill="none" xmlns="http://www.w3.org/2000/svg">
<path d="M9.58143 7.47L7.46143 9.59L5.33143 7.47L3.92143 8.88L6.05143 11L3.93143 13.12L5.34143 14.53L7.46143 12.41L9.58143 14.53L10.9914 13.12L8.87143 11L10.9914 8.88L9.58143 7.47ZM10.9614 1L9.96143 0H4.96143L3.96143 1H0.461426V3H14.4614V1H10.9614ZM1.46143 16C1.46143 17.1 2.36143 18 3.46143 18H11.4614C12.5614 18 13.4614 17.1 13.4614 16V4H1.46143V16ZM3.46143 6H11.4614V16H3.46143V6Z" fill="#32323B"/>
</svg>
