<svg width="2" height="2" viewBox="0 0 32 32" fill="none" xmlns="http://www.w3.org/2000/svg">
<path d="M20.6667 13.3333C21.7712 13.3333 22.6667 12.4379 22.6667 11.3333C22.6667 10.2288 21.7712 9.33333 20.6667 9.33333C19.5621 9.33333 18.6667 10.2288 18.6667 11.3333C18.6667 12.4379 19.5621 13.3333 20.6667 13.3333Z" fill="#32323B"/>
<path d="M4 6.66667C4 5.19391 5.19391 4 6.66667 4H25.3333C26.8061 4 28 5.19391 28 6.66667V25.3333C28 26.8061 26.8061 28 25.3333 28H6.66667C5.19391 28 4 26.8061 4 25.3333V6.66667ZM25.3333 6.66667H6.66667V17.2259L11.1671 13.6255C11.6541 13.2359 12.346 13.2359 12.833 13.6255L18.5678 18.2133L20.3906 16.3905C20.9113 15.8698 21.7555 15.8698 22.2762 16.3905L25.3333 19.4477V6.66667ZM6.66667 25.3333H25.3333V23.2189L21.3334 19.219L19.6095 20.9428C19.1291 21.4232 18.3643 21.4656 17.8338 21.0412L12 16.3742L6.66667 20.6409V25.3333Z" fill="#32323B"/>
</svg>
