<svg width="11" height="18" viewBox="0 0 11 18" fill="none" xmlns="http://www.w3.org/2000/svg">
<path d="M6.26143 7.9C3.99143 7.31 3.26143 6.7 3.26143 5.75C3.26143 4.66 4.27143 3.9 5.96143 3.9C7.74143 3.9 8.40143 4.75 8.46143 6H10.6714C10.6014 4.28 9.55143 2.7 7.46143 2.19V0H4.46143V2.16C2.52143 2.58 0.961433 3.84 0.961433 5.77C0.961433 8.08 2.87143 9.23 5.66143 9.9C8.16143 10.5 8.66143 11.38 8.66143 12.31C8.66143 13 8.17143 14.1 5.96143 14.1C3.90143 14.1 3.09143 13.18 2.98143 12H0.781433C0.901433 14.19 2.54143 15.42 4.46143 15.83V18H7.46143V15.85C9.41143 15.48 10.9614 14.35 10.9614 12.3C10.9614 9.46 8.53143 8.49 6.26143 7.9Z" fill="#FCFCFC"/>
</svg>
